<?xml version="1.0" encoding="utf-8"?>
<!-- Generator: Adobe Illustrator 26.0.1, SVG Export Plug-In . SVG Version: 6.00 Build 0)  -->
<svg version="1.1" id="Capa_1" xmlns="http://www.w3.org/2000/svg" xmlns:xlink="http://www.w3.org/1999/xlink" x="0px" y="0px"
	 viewBox="0 0 209.6 28.2" style="enable-background:new 0 0 209.6 28.2;" xml:space="preserve">
<style type="text/css">
	.st0{fill:#3279F9;}
</style>
<g id="Capa_2_00000004506734697705604590000015513579478082843786_">
	<g id="Capa_1-2">
		<polygon class="st0" points="83.9,11.7 90.1,23.7 93.9,23.7 83.9,4.5 73.9,23.7 77.6,23.7 		"/>
		<path class="st0" d="M101.1,28.2V0h4.2v8.5c1.8-1.6,4.1-2.4,6.5-2.4c1.9,0,3.8,0.5,5.5,1.5c1.6,1,3,2.3,3.9,4
			c1,1.7,1.5,3.6,1.4,5.6c0,2-0.5,3.9-1.4,5.6c-2.6,4.5-8,6.5-12.9,4.9c-1.1-0.4-2.1-0.9-3-1.6v2.2L101.1,28.2z M111.3,24.5
			c2.6,0.1,5-1.3,6.3-3.6c0.7-1.1,1-2.5,1-3.8c0-2.6-1.3-5.1-3.5-6.4c-1.1-0.7-2.4-1-3.7-1c-1.2,0-2.3,0.2-3.4,0.7
			c-1,0.4-1.9,1.1-2.6,1.9V22c0.7,0.8,1.6,1.4,2.6,1.8C109,24.3,110.1,24.5,111.3,24.5z"/>
		<path class="st0" d="M136.7,28.2c-2,0-3.9-0.5-5.6-1.4c-3.4-2-5.5-5.6-5.5-9.6c0-2,0.5-3.9,1.5-5.6c2-3.4,5.7-5.5,9.6-5.4
			c2,0,3.9,0.5,5.6,1.5c1.7,1,3,2.3,4,4s1.5,3.6,1.5,5.6s-0.5,3.9-1.5,5.6c-0.9,1.7-2.3,3.1-4,4C140.6,27.7,138.7,28.2,136.7,28.2z
			 M136.7,24.5c1.3,0,2.5-0.3,3.5-1c1.1-0.6,1.9-1.6,2.5-2.6c0.6-1.2,0.9-2.4,0.9-3.8c0-1.3-0.3-2.6-0.9-3.7c-0.6-1.1-1.5-2-2.5-2.6
			c-2.2-1.3-4.9-1.3-7.1,0c-1.1,0.7-1.9,1.6-2.5,2.6c-0.6,1.1-0.9,2.4-0.9,3.7s0.3,2.6,0.9,3.8c0.6,1.1,1.5,2,2.5,2.6
			C134.3,24.2,135.5,24.5,136.7,24.5z"/>
		<path class="st0" d="M161.8,28.2c-2,0-3.9-0.5-5.6-1.4c-1.7-1-3-2.3-4-4s-1.5-3.6-1.5-5.6s0.5-3.9,1.5-5.6c2-3.4,5.7-5.5,9.6-5.4
			c2,0,3.9,0.5,5.6,1.5c1.7,1,3,2.3,4,4s1.5,3.6,1.5,5.6s-0.5,3.9-1.5,5.6c-0.9,1.7-2.3,3.1-4,4C165.7,27.7,163.8,28.2,161.8,28.2z
			 M161.8,24.5c1.3,0,2.5-0.3,3.5-1c1.1-0.6,1.9-1.6,2.5-2.6c0.6-1.2,0.9-2.4,0.9-3.8c0-1.3-0.3-2.6-0.9-3.7c-0.6-1.1-1.5-2-2.5-2.6
			c-2.2-1.3-4.9-1.3-7.1,0c-1.1,0.7-1.9,1.6-2.5,2.6c-0.6,1.1-0.9,2.4-0.9,3.7s0.3,2.6,0.9,3.8c0.6,1.1,1.5,2,2.5,2.6
			C159.4,24.2,160.6,24.5,161.8,24.5z"/>
		<path class="st0" d="M184.1,28.1c-1.7,0-3.5-0.3-5.1-0.8c-1.5-0.5-2.9-1.3-4.1-2.3l2.2-2.8c1,0.8,2.2,1.5,3.4,2
			c1.1,0.4,2.3,0.7,3.5,0.7c1.3,0.1,2.5-0.2,3.7-0.9c0.9-0.4,1.4-1.3,1.4-2.3c0-0.7-0.3-1.4-0.8-1.8c-0.8-0.5-1.7-0.8-2.6-0.9
			l-3.8-0.5c-1.8-0.2-3.4-0.9-4.8-2c-1.1-1-1.6-2.5-1.6-4c0-1.2,0.3-2.4,1-3.3c0.7-1,1.8-1.8,2.9-2.3c1.4-0.5,2.9-0.8,4.3-0.8
			c1.5,0,3,0.2,4.5,0.7s2.8,1.2,4.1,2.1l-2.1,2.8c-1.1-0.7-2.2-1.3-3.4-1.7c-1.1-0.4-2.2-0.5-3.3-0.5c-1.1-0.1-2.2,0.2-3.1,0.8
			c-0.7,0.5-1.2,1.3-1.2,2.1c0,0.7,0.3,1.4,0.8,1.8c0.8,0.5,1.7,0.8,2.6,0.9l3.9,0.6c1.8,0.1,3.4,0.8,4.8,1.9c1.1,1,1.7,2.5,1.6,4
			c0,1.2-0.4,2.4-1.2,3.4c-0.8,1.1-1.9,1.9-3.2,2.4C187.2,27.9,185.6,28.2,184.1,28.1z"/>
		<path class="st0" d="M205.4,28.1c-1.7,0.1-3.4-0.4-4.7-1.4c-1.2-1.1-1.8-2.7-1.6-4.2V9.6h-4.5V6.1h4.5V0h4.2v6.1h6.3v3.5h-6.3
			v11.9c-0.1,0.8,0.2,1.7,0.7,2.3c0.7,0.5,1.6,0.8,2.4,0.7c1,0,2.1-0.2,3.1-0.5v3.6c-0.6,0.2-1.3,0.4-1.9,0.4
			C206.8,28.1,206.1,28.1,205.4,28.1z"/>
		<path class="st0" d="M9.4,28.2c-1.3,0.1-2.6-0.3-3.6-1.2c-0.9-0.9-1.3-2-1.3-3.3V7.8H0V6.1h4.5V0h1.8v6.1h6.4v1.7H6.4v15.3
			c-0.1,0.9,0.2,1.8,0.8,2.5c0.7,0.6,1.7,0.9,2.6,0.8c0.6,0,1.1,0,1.6-0.1s0.9-0.3,1.4-0.4v1.8c-0.5,0.2-1.1,0.3-1.6,0.4
			C10.6,28.1,10,28.2,9.4,28.2z"/>
		<path class="st0" d="M25.1,28.2c-1.9,0-3.7-0.5-5.3-1.5s-2.9-2.4-3.8-4c-0.9-1.7-1.4-3.6-1.4-5.6s0.4-3.9,1.4-5.6
			c0.9-1.6,2.2-3,3.7-4c1.6-1,3.4-1.4,5.3-1.4c1.8,0,3.5,0.5,4.9,1.5s2.6,2.3,3.4,3.9c0.9,1.7,1.3,3.5,1.3,5.4v0.8H16.5
			c0.1,1.6,0.5,3.1,1.3,4.4s1.8,2.3,3.1,3.1c1.3,0.8,2.8,1.2,4.2,1.2c1.2,0,2.4-0.2,3.6-0.6c1.1-0.3,2.1-0.9,3-1.6l1.1,1.5
			c-1.1,0.8-2.3,1.4-3.7,1.9C27.8,28,26.5,28.2,25.1,28.2z M16.6,15.8h15.9c-0.1-1.4-0.6-2.8-1.2-4c-0.7-1.1-1.6-2.1-2.7-2.8
			c-1.1-0.7-2.4-1.1-3.7-1.1c-1.4,0-2.8,0.3-4,1s-2.2,1.7-2.9,2.9C17.2,13,16.7,14.4,16.6,15.8z"/>
		<path class="st0" d="M45.4,28.2c-1.6,0-3.2-0.3-4.7-0.9c-1.4-0.6-2.7-1.4-3.8-2.6l1.5-1.2c1.8,1.8,4.3,2.9,6.9,2.9
			c1.7,0.1,3.3-0.4,4.7-1.3c1.1-0.7,1.8-2,1.8-3.3c0-1-0.4-1.9-1.1-2.5c-1-0.8-2.2-1.2-3.5-1.3l-3.5-0.4c-1.7-0.1-3.3-0.7-4.6-1.8
			c-1.1-1-1.6-2.4-1.6-3.8c0-1.1,0.3-2.1,1-3s1.6-1.7,2.7-2.1c1.2-0.5,2.6-0.8,3.9-0.8c1.4,0,2.8,0.2,4.1,0.7c1.4,0.5,2.8,1.2,4,2.1
			l-1.1,1.6c-1.1-0.8-2.2-1.5-3.5-2c-1.1-0.4-2.3-0.6-3.5-0.6C43.7,7.8,42.2,8.2,41,9c-1.1,0.7-1.7,1.9-1.6,3.1
			c0,0.9,0.4,1.9,1.1,2.5c1,0.7,2.2,1.2,3.4,1.2l3.5,0.4c1.7,0.1,3.4,0.7,4.7,1.9c1,1,1.6,2.3,1.5,3.8c0,1.2-0.4,2.3-1.1,3.2
			c-0.8,1-1.8,1.8-3,2.3C48.4,27.9,46.9,28.2,45.4,28.2z"/>
		<path class="st0" d="M64.2,28.2c-1.3,0.1-2.6-0.3-3.6-1.2c-0.9-0.9-1.3-2-1.3-3.3V7.8h-4.5V6.1h4.5V0h1.8v6.1h6.4v1.7h-6.4v15.3
			c-0.1,0.9,0.2,1.8,0.8,2.5c0.7,0.6,1.7,0.9,2.6,0.8c0.6,0,1.1,0,1.6-0.1s0.9-0.3,1.4-0.4v1.8c-0.5,0.2-1.1,0.3-1.6,0.4
			C65.4,28.1,64.8,28.2,64.2,28.2z"/>
	</g>
</g>
</svg>
